PathFileType	3	(X/Y/Z)	C:\Users\koon_\Desktop\
DataRate	CameraRate	NumFrames	NumMarkers	Units	OrigDataRate	OrigDataStartFrame	OrigNumFrames
100.0	100.0	8	27	mm	100.0	3243	3706	
Frame#	Time	GM:LFHD			GM:RFHD			GM:LBHD			GM:RBHD			GM:C7			GM:T10			GM:CLAV			GM:STRN			GM:RBAK			GM:LSHO			GM:LUPA			GM:LELB			GM:LFRA			GM:LWRA			GM:LWRB			GM:LFIN			GM:RSHO			GM:RUPA			GM:RELB			GM:RFRA			GM:RWRA			GM:RWRB			GM:RFIN			GM:LASI			GM:RASI			GM:LPSI			GM:RPSI			
		X1	Y1	Z1	X2	Y2	Z2	X3	Y3	Z3	X4	Y4	Z4	X5	Y5	Z5	X6	Y6	Z6	X7	Y7	Z7	X8	Y8	Z8	X9	Y9	Z9	X10	Y10	Z10	X11	Y11	Z11	X12	Y12	Z12	X13	Y13	Z13	X14	Y14	Z14	X15	Y15	Z15	X16	Y16	Z16	X17	Y17	Z17	X18	Y18	Z18	X19	Y19	Z19	X20	Y20	Z20	X21	Y21	Z21	X22	Y22	Z22	X23	Y23	Z23	X24	Y24	Z24	X25	Y25	Z25	X26	Y26	Z26	X27	Y27	Z27	
3243	32.42	71.156578	1604.7792	-80.502068	-82.646652	1595.6327	-80.94194	72.863464	1588.339	-212.75238	-90.668411	1581.3154	-196.06686	-2.2761154	1418.6707	-254.12419	2.2244401	1220.816	-294.79077	7.944284	1358.3467	-97.09182	10.929495	1213.6608	-46.174294	-92.617989	1307.3344	-298.4046	176.48282	1393.7069	-181.52757	241.17986	1286.2401	-174.18411	263.49811	1079.4136	-221.15717	231.94012	961.30707	-135.4109	230.72253	892.32129	-110.70458	265.62616	868.86084	-163.62631	245.02194	804.28644	-92.128319	-183.42282	1386.8259	-157.40211	-235.63699	1151.2285	-155.23715	-258.91751	1068.9883	-203.00514	-238.06848	1011.882	-131.34628	-230.25183	881.97681	-102.0638	-254.76334	861.24591	-156.08618	-253.75119	795.98553	-91.364326	146.30734	900.6922	-76.579887	-145.86223	906.90137	-70.199196	66.016823	952.87134	-285.36002	-72.166924	944.23035	-283.81366
3244	32.43	71.156944	1604.6571	-80.228035	-82.606445	1595.478	-80.592621	72.837128	1588.3933	-212.48555	-90.723938	1581.3427	-195.75284	-2.4088511	1418.6807	-254.06497	2.0533998	1220.774	-294.82941	8.0158539	1358.3788	-96.997353	11.068908	1213.7146	-46.173325	-92.731079	1307.4247	-298.28366	176.39145	1393.9012	-181.83772	241.02803	1286.2948	-174.45337	262.52499	1079.2124	-221.07452	229.31384	961.0788	-136.37106	227.31821	891.84491	-111.77556	262.56534	868.24664	-164.43382	243.75905	804.46552	-93.172989	-183.51418	1387.2849	-157.13229	-235.13098	1151.2211	-155.49376	-257.98764	1069.0765	-203.53979	-236.71667	1011.7383	-132.2645	-229.30074	881.83679	-103.58038	-252.82509	861.10547	-157.91092	-254.13232	796.90381	-92.908623	146.35687	900.70502	-76.561584	-145.80711	906.86578	-70.082031	65.958664	952.87671	-285.43558	-72.255508	944.26843	-283.70752
3245	32.44	71.197334	1604.5417	-79.949883	-82.631912	1595.3698	-80.280647	72.811272	1588.4573	-212.24599	-90.729546	1581.363	-195.53464	-2.5058355	1418.7063	-254.06685	1.8685628	1220.7529	-294.83118	8.09025	1358.3943	-97.014801	11.230167	1213.7803	-46.080814	-92.844803	1307.4578	-298.22263	176.34283	1394.0549	-182.0648	240.81801	1286.3521	-174.76167	261.66135	1079.0648	-221.0844	227.21222	960.7406	-137.06128	225.12497	891.85492	-112.35474	260.03275	867.9798	-165.60915	243.60107	804.98468	-93.742691	-183.57095	1387.7595	-156.99907	-234.54176	1151.2832	-155.73772	-256.79309	1069.2365	-204.06798	-235.84715	1011.6997	-133.14668	-228.7242	881.78088	-104.77985	-251.27367	861.02698	-159.42566	-254.57626	797.95117	-93.986763	146.36412	900.6615	-76.56749	-145.71152	906.93262	-69.875175	65.86071	952.9527	-285.48761	-72.328575	944.28931	-283.64127
3246	32.45	71.180779	1604.4095	-79.673294	-82.605118	1595.2404	-80.049263	72.800667	1588.5435	-212.06004	-90.760887	1581.4031	-195.30933	-2.5139709	1418.694	-254.06256	1.7552997	1220.7288	-294.82111	8.1316071	1358.4167	-97.006134	11.259947	1213.8436	-46.080521	-92.85955	1307.5488	-298.19177	176.26581	1394.2439	-182.33049	240.67358	1286.3745	-175.09067	260.84619	1078.9464	-221.28822	225.28923	960.56378	-137.58679	223.18649	891.80292	-113.2757	257.53635	867.42096	-166.66812	243.97159	805.62054	-94.227371	-183.54967	1388.251	-156.89377	-234.07776	1151.4141	-155.99144	-256.52054	1069.488	-204.5986	-235.27621	1011.7923	-133.84503	-228.29875	881.83362	-106.03514	-250.13521	861.07837	-160.69766	-254.91733	799.08881	-94.694221	146.40625	900.63147	-76.546341	-145.70259	906.92212	-69.772545	65.783867	952.88684	-285.32669	-72.424164	944.28387	-283.58835
3247	32.46	71.215271	1604.3068	-79.473602	-82.63414	1595.1086	-79.843536	72.849968	1588.6006	-211.77696	-90.744133	1581.4185	-195.0667	-2.5646703	1418.6942	-254.07819	1.6480559	1220.7291	-294.81967	8.2159452	1358.5107	-97.011734	11.329744	1213.9214	-46.020424	-92.862167	1307.5519	-298.18823	176.22218	1394.3711	-182.51445	240.45354	1286.4314	-175.5094	260.10126	1078.833	-221.50371	223.72087	960.4021	-138.23347	220.54976	891.12646	-114.69414	255.77711	867.33185	-167.57079	244.41614	806.48309	-94.491325	-183.60779	1388.8723	-156.93565	-233.78932	1151.6844	-156.22643	-256.14917	1069.8585	-204.95631	-235.03081	1011.9996	-134.49156	-227.99545	881.99536	-106.84007	-249.01251	861.51196	-161.82854	-255.34111	800.08325	-95.359474	146.38583	900.63757	-76.487923	-145.69232	906.91699	-69.662186	65.793884	952.84314	-284.95343	-72.48909	944.25476	-283.49191
3248	32.47	71.22747	1604.2383	-79.214355	-82.579002	1594.9983	-79.648392	72.847809	1588.6768	-211.57468	-90.724907	1581.4078	-194.87895	-2.5417252	1418.7144	-254.07964	1.5406276	1220.7301	-294.81757	8.2877893	1358.5747	-96.951622	11.331432	1213.9557	-46.026619	-92.83606	1307.5267	-298.17279	176.1553	1394.5206	-182.73897	240.25587	1286.4537	-175.90234	259.4715	1078.769	-221.89563	222.71413	960.35876	-138.68758	220.53661	891.22803	-114.83388	254.8109	867.41888	-168.14671	244.76527	807.30396	-94.66124	-183.60719	1389.3944	-157.02237	-233.7451	1152.0238	-156.37823	-255.85797	1070.2263	-205.19611	-234.98503	1012.2206	-134.85941	-227.84697	882.20691	-107.40568	-248.60744	861.62885	-162.47302	-255.82329	800.88879	-95.997597	146.44258	900.69171	-76.473137	-145.6908	906.93365	-69.557838	65.729286	952.80524	-284.97852	-72.570618	944.22516	-283.3869
3249	32.48	71.199829	1604.1897	-79.043472	-82.744858	1594.868	-79.510178	72.859665	1588.7509	-211.38458	-90.304047	1581.489	-194.73257	-2.5088379	1418.6986	-254.13063	1.4826579	1220.6917	-294.87262	8.3376045	1358.6514	-96.9701	11.336943	1214.0659	-46.02541	-92.783531	1307.4821	-298.19476	176.16344	1394.6144	-183.00595	240.19928	1286.5048	-176.33249	258.71893	1078.7489	-222.29959	222.21889	960.36035	-139.06572	221.97841	892.24731	-114.187	254.58768	867.72382	-168.48392	245.40997	807.81604	-94.905632	-183.57066	1389.9307	-157.07314	-233.97528	1152.4718	-156.43634	-255.80338	1070.619	-205.3087	-235.1841	1012.5663	-135.138	-227.89261	882.53308	-107.72577	-248.21915	861.9278	-162.93745	-256.26874	801.43494	-96.770638	146.35292	900.71606	-76.465309	-145.6432	906.94897	-69.436394	65.578239	952.75983	-284.83478	-72.633194	944.21356	-283.3035
3250	32.49	71.202461	1604.1215	-78.83416	-82.696503	1594.7787	-79.374039	72.917542	1588.8431	-211.16196	-90.26516	1581.4451	-194.59457	-2.4319696	1418.7213	-254.17244	1.4213848	1220.6599	-294.80551	8.4692516	1358.6989	-96.929688	11.327046	1214.1609	-45.956215	-92.715271	1307.3997	-298.20084	176.11839	1394.7161	-183.29857	240.10583	1286.5743	-176.8141	258.70721	1078.8385	-222.56339	222.27026	960.4483	-139.2298	221.87448	892.16602	-114.56567	254.17099	867.35266	-168.40213	245.11032	807.91229	-95.194939	-183.37813	1390.2667	-157.00258	-234.34445	1152.9022	-156.58548	-255.78395	1070.9744	-205.29956	-235.49541	1012.9547	-135.27457	-228.18643	882.82397	-108.10426	-247.96439	862.23419	-163.26839	-256.66415	801.7663	-97.369659	146.38857	900.78851	-76.394188	-145.56636	907.01172	-69.269936	65.523842	952.758	-284.86063	-72.686798	944.23297	-283.2114
